<svg aria-hidden="true" style="width:0;height:0;position:absolute;overflow:hidden" xmlns="http://www.w3.org/2000/svg"><defs><symbol id="icon-map" viewBox="0 0 32 32"><path d="M16 3.215c-4.419 0-8 3.566-8 7.984 0 7.638 8 17.6 8 17.6s8-9.963 8-17.6c0-4.416-3.581-7.984-8-7.984zm0 12.401a4.32 4.32 0 1 1 0-8.64 4.32 4.32 0 0 1 0 8.64z"/></symbol><symbol id="icon-phone" viewBox="0 0 32 32"><path d="M21 2.667a3.004 3.004 0 0 1 3 3v20.667a3.004 3.004 0 0 1-3 3H11a3.004 3.004 0 0 1-3-3V5.667a3.004 3.004 0 0 1 3-3h10zm0 2H11a.997.997 0 0 0-1 1v20.667a1 1 0 0 0 1 1h10a.997.997 0 0 0 1-1V5.667a.997.997 0 0 0-1-1zm-3.335 18.666a1 1 0 0 1 .002 2l-3.333.005a1 1 0 0 1-.002-2l3.333-.005z"/></symbol></defs></svg>