<svg xmlns="http://www.w3.org/2000/svg" aria-hidden="true" style="width:0;height:0;position:absolute;overflow:hidden"><defs><symbol id="icon-close" viewBox="0 0 20 20"><path d="M10 8.586 2.929 1.515 1.515 2.929 8.586 10l-7.071 7.071 1.414 1.414L10 11.414l7.071 7.071 1.414-1.414L11.414 10l7.071-7.071-1.414-1.414L10 8.586z"/></symbol><symbol id="arrow-down" viewBox="0 0 32 32"><path fill="#c79002" style="fill:#c79002" d="M3.272 10.586a2 2 0 0 1 2.828 0l9.9 9.9 9.9-9.9a1.998 1.998 0 0 1 2.804.025 2.001 2.001 0 0 1 .025 2.804L17.415 24.729a2 2 0 0 1-2.828 0L3.273 13.415a2 2 0 0 1 0-2.828z"/></symbol></defs></svg>